# xmcd
#
# Track frame offsets:
#	150
#	16733
#	31319
#	44583
#	57004
#	71005
#	86004
#	101268
#	114823
#	125827
#	140490
#	157116
#	172635
#	185321
#	199060
#	212345
#
# Disc length: 3132 seconds
#
# Revision: 0
# Processed by: cddbd v1.5.2PL0 Copyright (c) Steve Scherf et al.
# Submitted via: EasyCDDAExtractor 16.0.6.1
#
DISCID=ce0c3a10
DTITLE=Μπέλλου Σωτηρία - Ογδόντα μεγάλες επιτυχίες-Σ. Μπέλλου 4
DYEAR=2010
DGENRE=Ποικίλη
TTITLE0=Σαν απόκληρος γυρίζω [Βασίλης Τσιτσάνης]
TTITLE1=Καροτσέρη, τράβα [Αποστολος Χατζηχρήστος]
TTITLE2=Άνοιξε, άνοιξε [Γ. Παπαϊωάννου-Χαρ. Βασιλειάδης]
TTITLE3=Ξεκινά μιά ψαροπούλα [Δημ. Γκόγκος Μπαγιαντέρας]
TTITLE4=Άναψε το τσιγάρο [Γερ. Κλουβάτος-Χαρ. Βασιλειάδης]
TTITLE5=Πάλι στις τρεις ήρθες εχθές να κοιμηθείς [Μ. Χιώτης]
TTITLE6=Σ' ένα βράχο φαγωμένο [Απόστολος Καλδάρας]
TTITLE7=Δώδεκα η ώρα θά 'ρθω βρε Μαριώ [Βασ. Τσιτσάνης]
TTITLE8=Για κοίτα κόσμε [Βασίλης Τσιτσάνης]
TTITLE9=Μεσάνυχτα βαθιά σκοτεινιασμένα [Γ. Λαύκας-Χρ. Κολοκοτρώνης]
TTITLE10=Απόψε το μπουζούκι σου [Βασ. Τσιτσάνης]
TTITLE11=Κλαμένη ήρθες μιά βραδιά [Βασ. Τσιτσάνης]
TTITLE12=Προχτές, εχτές και σήμερα [Π. Πετσάς-Κ. Τσιριγώτης]
TTITLE13=Εγώ 'μαι το μπεγλέρι σου [Βασ. Τσιτσάνης]
TTITLE14=Ο κόσμος είναι σαν μπαξές [Βασ. Δημητρίου-Μ. Ελευθερίου]
TTITLE15=Δεν περισσεύει υπομονή [Αργ. Κουνάδης-Βαγγ. Γκούφας]
EXTD=
EXTT0=
EXTT1=
EXTT2=
EXTT3=
EXTT4=
EXTT5=
EXTT6=
EXTT7=
EXTT8=
EXTT9=
EXTT10=
EXTT11=
EXTT12=
EXTT13=
EXTT14=
EXTT15=
PLAYORDER=
